<svg id="mermaid-1789986014362" width="100%" xmlns="http://www.w3.org/2000/svg" xmlns:xlink="http://www.w3.org/1999/xlink" style="max-width: 2027.7265625px;" viewBox="-14 -18.5 2027.7265625 1013.5776977539062" role="graphics-document document" aria-roledescription="flowchart-v2"><style>#mermaid-1789986014362{font-family:"trebuchet ms",verdana,arial,sans-serif;font-size:18px;fill:#333;}#mermaid-1789986014362 .error-icon{fill:#552222;}#mermaid-1789986014362 .error-text{fill:#552222;stroke:#552222;}#mermaid-1789986014362 .edge-thickness-normal{stroke-width:2px;}#mermaid-1789986014362 .edge-thickness-thick{stroke-width:3.5px;}#mermaid-1789986014362 .edge-pattern-solid{stroke-dasharray:0;}#mermaid-1789986014362 .edge-pattern-dashed{stroke-dasharray:3;}#mermaid-1789986014362 .edge-pattern-dotted{stroke-dasharray:2;}#mermaid-1789986014362 .marker{fill:#0969da;stroke:#0969da;}#mermaid-1789986014362 .marker.cross{stroke:#0969da;}#mermaid-1789986014362 svg{font-family:"trebuchet ms",verdana,arial,sans-serif;font-size:18px;}#mermaid-1789986014362 .label{font-family:"trebuchet ms",verdana,arial,sans-serif;color:#333;}#mermaid-1789986014362 .cluster-label text{fill:#333;}#mermaid-1789986014362 .cluster-label span,#mermaid-1789986014362 p{color:#333;}#mermaid-1789986014362 .label text,#mermaid-1789986014362 span,#mermaid-1789986014362 p{fill:#333;color:#333;}#mermaid-1789986014362 .node rect,#mermaid-1789986014362 .node circle,#mermaid-1789986014362 .node ellipse,#mermaid-1789986014362 .node polygon,#mermaid-1789986014362 .node path{fill:#ECECFF;stroke:#9370DB;stroke-width:1px;}#mermaid-1789986014362 .flowchart-label text{text-anchor:middle;}#mermaid-1789986014362 .node .katex path{fill:#000;stroke:#000;stroke-width:1px;}#mermaid-1789986014362 .node .label{text-align:center;}#mermaid-1789986014362 .node.clickable{cursor:pointer;}#mermaid-1789986014362 .arrowheadPath{fill:#333333;}#mermaid-1789986014362 .edgePath .path{stroke:#0969da;stroke-width:2.0px;}#mermaid-1789986014362 .flowchart-link{stroke:#0969da;fill:none;}#mermaid-1789986014362 .edgeLabel{background-color:#e8e8e8;text-align:center;}#mermaid-1789986014362 .edgeLabel rect{opacity:0.5;background-color:#e8e8e8;fill:#e8e8e8;}#mermaid-1789986014362 .labelBkg{background-color:rgba(232, 232, 232, 0.5);}#mermaid-1789986014362 .cluster rect{fill:#ffffde;stroke:#aaaa33;stroke-width:1px;}#mermaid-1789986014362 .cluster text{fill:#333;}#mermaid-1789986014362 .cluster span,#mermaid-1789986014362 p{color:#333;}#mermaid-1789986014362 div.mermaidTooltip{position:absolute;text-align:center;max-width:200px;padding:2px;font-family:"trebuchet ms",verdana,arial,sans-serif;font-size:12px;background:#f6f8fa;border:1px solid #aaaa33;border-radius:2px;pointer-events:none;z-index:100;}#mermaid-1789986014362 .flowchartTitleText{text-anchor:middle;font-size:18px;fill:#333;}#mermaid-1789986014362 :root{--mermaid-font-family:"trebuchet ms",verdana,arial,sans-serif;}#mermaid-1789986014362 .server&gt;*{fill:rgb(255, 255, 255)!important;stroke:rgb(9, 105, 218)!important;stroke-width:2px!important;color:rgb(31, 35, 40)!important;}#mermaid-1789986014362 .server span{fill:rgb(255, 255, 255)!important;stroke:rgb(9, 105, 218)!important;stroke-width:2px!important;color:rgb(31, 35, 40)!important;}#mermaid-1789986014362 .server tspan{fill:rgb(31, 35, 40)!important;}#mermaid-1789986014362 .agent&gt;*{fill:rgb(255, 255, 255)!important;stroke:rgb(26, 127, 55)!important;stroke-width:2px!important;color:rgb(31, 35, 40)!important;}#mermaid-1789986014362 .agent span{fill:rgb(255, 255, 255)!important;stroke:rgb(26, 127, 55)!important;stroke-width:2px!important;color:rgb(31, 35, 40)!important;}#mermaid-1789986014362 .agent tspan{fill:rgb(31, 35, 40)!important;}#mermaid-1789986014362 .storage&gt;*{fill:rgb(255, 255, 255)!important;stroke:rgb(154, 103, 0)!important;stroke-width:2px!important;color:rgb(31, 35, 40)!important;}#mermaid-1789986014362 .storage span{fill:rgb(255, 255, 255)!important;stroke:rgb(154, 103, 0)!important;stroke-width:2px!important;color:rgb(31, 35, 40)!important;}#mermaid-1789986014362 .storage tspan{fill:rgb(31, 35, 40)!important;}#mermaid-1789986014362 .mdm&gt;*{fill:rgb(255, 255, 255)!important;stroke:rgb(130, 80, 223)!important;stroke-width:2px!important;color:rgb(31, 35, 40)!important;}#mermaid-1789986014362 .mdm span{fill:rgb(255, 255, 255)!important;stroke:rgb(130, 80, 223)!important;stroke-width:2px!important;color:rgb(31, 35, 40)!important;}#mermaid-1789986014362 .mdm tspan{fill:rgb(31, 35, 40)!important;}</style><g><marker id="mermaid-1789986014362_flowchart-pointEnd" class="marker flowchart" viewBox="0 0 10 10" refX="6" refY="5" markerUnits="userSpaceOnUse" markerWidth="12" markerHeight="12" orient="auto"><path d="M 0 0 L 10 5 L 0 10 z" class="arrowMarkerPath" style="stroke-width: 1; stroke-dasharray: 1, 0;"></path></marker><marker id="mermaid-1789986014362_flowchart-pointStart" class="marker flowchart" viewBox="0 0 10 10" refX="4.5" refY="5" markerUnits="userSpaceOnUse" markerWidth="12" markerHeight="12" orient="auto"><path d="M 0 5 L 10 10 L 10 0 z" class="arrowMarkerPath" style="stroke-width: 1; stroke-dasharray: 1, 0;"></path></marker><marker id="mermaid-1789986014362_flowchart-circleEnd" class="marker flowchart" viewBox="0 0 10 10" refX="11" refY="5" markerUnits="userSpaceOnUse" markerWidth="11" markerHeight="11" orient="auto"><circle cx="5" cy="5" r="5" class="arrowMarkerPath" style="stroke-width: 1; stroke-dasharray: 1, 0;"></circle></marker><marker id="mermaid-1789986014362_flowchart-circleStart" class="marker flowchart" viewBox="0 0 10 10" refX="-1" refY="5" markerUnits="userSpaceOnUse" markerWidth="11" markerHeight="11" orient="auto"><circle cx="5" cy="5" r="5" class="arrowMarkerPath" style="stroke-width: 1; stroke-dasharray: 1, 0;"></circle></marker><marker id="mermaid-1789986014362_flowchart-crossEnd" class="marker cross flowchart" viewBox="0 0 11 11" refX="12" refY="5.2" markerUnits="userSpaceOnUse" markerWidth="11" markerHeight="11" orient="auto"><path d="M 1,1 l 9,9 M 10,1 l -9,9" class="arrowMarkerPath" style="stroke-width: 2; stroke-dasharray: 1, 0;"></path></marker><marker id="mermaid-1789986014362_flowchart-crossStart" class="marker cross flowchart" viewBox="0 0 11 11" refX="-1" refY="5.2" markerUnits="userSpaceOnUse" markerWidth="11" markerHeight="11" orient="auto"><path d="M 1,1 l 9,9 M 10,1 l -9,9" class="arrowMarkerPath" style="stroke-width: 2; stroke-dasharray: 1, 0;"></path></marker><g class="root"><g class="clusters"><g class="cluster default flowchart-label" id="Endpoints"><rect style="" rx="0" ry="0" x="184.671875" y="671.7027053833008" width="1821.0546875" height="315.375"></rect><g class="cluster-label" transform="translate(834.16796875, 671.7027053833008)"><foreignObject width="522.0625" height="31.1875"><div xmlns="http://www.w3.org/1999/xhtml" style="display: inline-block; white-space: nowrap;"><span class="nodeLabel">Managed Endpoints (Tailcat WireGuard Mesh)</span></div></foreignObject></g></g><g class="cluster default flowchart-label" id="Server"><rect style="" rx="0" ry="0" x="0" y="0" width="1894.6875" height="600.7027053833008"></rect><g class="cluster-label" transform="translate(667.953125, 0)"><foreignObject width="558.78125" height="31.1875"><div xmlns="http://www.w3.org/1999/xhtml" style="display: inline-block; white-space: nowrap;"><span class="nodeLabel">Shepherd Central Infrastructure (Go 1.23 Engine)</span></div></foreignObject></g></g><g class="cluster default flowchart-label" id="Linux"><rect style="" rx="0" ry="0" x="204.671875" y="696.7027053833008" width="460.4296875" height="265.375"></rect><g class="cluster-label" transform="translate(325.55078125, 696.7027053833008)"><foreignObject width="218.671875" height="31.1875"><div xmlns="http://www.w3.org/1999/xhtml" style="display: inline-block; white-space: nowrap;"><span class="nodeLabel">Linux Host (NixOS)</span></div></foreignObject></g></g><g class="cluster default flowchart-label" id="Mac"><rect style="" rx="0" ry="0" x="685.1015625" y="696.7027053833008" width="796.828125" height="265.375"></rect><g class="cluster-label" transform="translate(960.8203125, 696.7027053833008)"><foreignObject width="245.390625" height="31.1875"><div xmlns="http://www.w3.org/1999/xhtml" style="display: inline-block; white-space: nowrap;"><span class="nodeLabel">macOS Host (Darwin)</span></div></foreignObject></g></g><g class="cluster default flowchart-label" id="Win"><rect style="" rx="0" ry="0" x="1501.9296875" y="696.7027053833008" width="483.796875" height="265.375"></rect><g class="cluster-label" transform="translate(1618.6171875, 696.7027053833008)"><foreignObject width="250.421875" height="31.1875"><div xmlns="http://www.w3.org/1999/xhtml" style="display: inline-block; white-space: nowrap;"><span class="nodeLabel">Windows Host (NTFS)</span></div></foreignObject></g></g></g><g class="edgePaths"><path d="M969.629,97.188L969.629,103.104C969.629,109.021,969.629,120.854,969.629,131.804C969.629,142.754,969.629,152.821,969.629,157.854L969.629,162.888" id="L-Flake-Eval-0" class="edge-thickness-normal edge-pattern-solid flowchart-link LS-Flake LE-Eval" style="fill:none;" marker-end="url(#mermaid-1789986014362_flowchart-pointEnd)"></path><path d="M892.339,240.375L879.669,246.292C866.999,252.208,841.66,264.042,828.99,274.992C816.32,285.942,816.32,296.008,816.32,301.042L816.32,306.075" id="L-Eval-Core-0" class="edge-thickness-normal edge-pattern-solid flowchart-link LS-Eval LE-Core" style="fill:none;" marker-end="url(#mermaid-1789986014362_flowchart-pointEnd)"></path><path d="M684.572,361.198L592.024,370.842C499.475,380.486,314.378,399.774,221.83,414.773C129.281,429.771,129.281,440.48,129.281,445.834L129.281,451.188" id="L-Core-DB-0" class="edge-thickness-normal edge-pattern-solid flowchart-link LS-Core LE-DB" style="fill:none;" marker-start="url(#mermaid-1789986014362_flowchart-pointStart)" marker-end="url(#mermaid-1789986014362_flowchart-pointEnd)"></path><path d="M942.797,363.546L1015.589,372.798C1088.38,382.051,1233.964,400.557,1306.755,418.922C1379.547,437.288,1379.547,455.513,1379.547,464.626L1379.547,473.739" id="L-Core-NanoMDM-0" class="edge-thickness-normal edge-pattern-solid flowchart-link LS-Core LE-NanoMDM" style="fill:none;" marker-end="url(#mermaid-1789986014362_flowchart-pointEnd)"></path><path d="M1032.787,240.375L1043.14,246.292C1053.493,252.208,1074.2,264.042,1084.553,281.891C1094.906,299.74,1094.906,323.604,1094.906,347.469C1094.906,371.333,1094.906,395.198,1094.906,412.164C1094.906,429.129,1094.906,439.196,1094.906,444.229L1094.906,449.263" id="L-Eval-Attic-0" class="edge-thickness-normal edge-pattern-solid flowchart-link LS-Eval LE-Attic" style="fill:none;" marker-end="url(#mermaid-1789986014362_flowchart-pointEnd)"></path><path d="M356.578,793.89L356.578,799.807C356.578,805.724,356.578,817.557,366.025,828.947C375.471,840.338,394.364,851.285,403.811,856.759L413.257,862.233" id="L-L_Ag-L_St-0" class="edge-thickness-normal edge-pattern-solid flowchart-link LS-L_Ag LE-L_St" style="fill:none;" marker-end="url(#mermaid-1789986014362_flowchart-pointEnd)"></path><path d="M844.352,793.89L844.352,799.807C844.352,805.724,844.352,817.557,855.247,828.991C866.143,840.425,887.934,851.461,898.829,856.978L909.725,862.496" id="L-M_Ag-M_St-0" class="edge-thickness-normal edge-pattern-solid flowchart-link LS-M_Ag LE-M_St" style="fill:none;" marker-end="url(#mermaid-1789986014362_flowchart-pointEnd)"></path><path d="M1379.547,793.89L1379.547,799.807C1379.547,805.724,1379.547,817.557,1379.547,828.507C1379.547,839.457,1379.547,849.524,1379.547,854.557L1379.547,859.59" id="L-M_MDM-M_Sec-0" class="edge-thickness-normal edge-pattern-solid flowchart-link LS-M_MDM LE-M_Sec" style="fill:none;" marker-end="url(#mermaid-1789986014362_flowchart-pointEnd)"></path><path d="M1656.805,793.89L1656.805,799.807C1656.805,805.724,1656.805,817.557,1666.372,828.951C1675.939,840.346,1695.072,851.301,1704.639,856.779L1714.206,862.257" id="L-W_Ag-W_Gn-0" class="edge-thickness-normal edge-pattern-solid flowchart-link LS-W_Ag LE-W_Gn" style="fill:none;" marker-end="url(#mermaid-1789986014362_flowchart-pointEnd)"></path><path d="M689.844,367.164L634.299,375.814C578.755,384.464,467.667,401.763,412.122,426.425C356.578,451.086,356.578,483.109,356.578,513.383C356.578,543.656,356.578,572.179,356.578,592.358C356.578,612.536,356.578,624.369,356.578,636.203C356.578,648.036,356.578,659.869,356.578,669.953C356.578,680.036,356.578,688.369,356.578,695.819C356.578,703.269,356.578,709.836,356.578,713.119L356.578,716.403" id="L-Core-L_Ag-0" class="edge-thickness-thick edge-pattern-solid flowchart-link LS-Core LE-L_Ag" style="stroke-width: 3.5px;fill:none;" marker-end="url(#mermaid-1789986014362_flowchart-pointEnd)"></path><path d="M830.452,383.563L832.769,389.479C835.085,395.396,839.718,407.229,842.035,429.158C844.352,451.086,844.352,483.109,844.352,513.383C844.352,543.656,844.352,572.179,844.352,592.358C844.352,612.536,844.352,624.369,844.352,636.203C844.352,648.036,844.352,659.869,844.352,669.953C844.352,680.036,844.352,688.369,844.352,695.819C844.352,703.269,844.352,709.836,844.352,713.119L844.352,716.403" id="L-Core-M_Ag-0" class="edge-thickness-thick edge-pattern-solid flowchart-link LS-Core LE-M_Ag" style="stroke-width: 3.5px;fill:none;" marker-end="url(#mermaid-1789986014362_flowchart-pointEnd)"></path><path d="M942.797,358.242L1061.798,368.379C1180.799,378.516,1418.802,398.789,1537.803,424.937C1656.805,451.086,1656.805,483.109,1656.805,513.383C1656.805,543.656,1656.805,572.179,1656.805,592.358C1656.805,612.536,1656.805,624.369,1656.805,636.203C1656.805,648.036,1656.805,659.869,1656.805,669.953C1656.805,680.036,1656.805,688.369,1656.805,695.819C1656.805,703.269,1656.805,709.836,1656.805,713.119L1656.805,716.403" id="L-Core-W_Ag-0" class="edge-thickness-thick edge-pattern-solid flowchart-link LS-Core LE-W_Ag" style="stroke-width: 3.5px;fill:none;" marker-end="url(#mermaid-1789986014362_flowchart-pointEnd)"></path><path d="M1379.547,551.226L1379.547,559.472C1379.547,567.718,1379.547,584.211,1379.547,598.373C1379.547,612.536,1379.547,624.369,1379.547,636.203C1379.547,648.036,1379.547,659.869,1379.547,669.953C1379.547,680.036,1379.547,688.369,1379.547,695.819C1379.547,703.269,1379.547,709.836,1379.547,713.119L1379.547,716.403" id="L-NanoMDM-M_MDM-0" class="edge-thickness-normal edge-pattern-dotted flowchart-link LS-NanoMDM LE-M_MDM" style="fill:none;stroke-width:2px;stroke-dasharray:3;" marker-end="url(#mermaid-1789986014362_flowchart-pointEnd)"></path><path d="M977.367,534.348L909.721,545.407C842.076,556.467,706.784,578.585,639.138,595.56C571.492,612.536,571.492,624.369,571.492,636.203C571.492,648.036,571.492,659.869,571.492,669.953C571.492,680.036,571.492,688.369,571.492,702.718C571.492,717.067,571.492,737.432,571.492,759.546C571.492,781.661,571.492,805.526,564.637,822.83C557.782,840.134,544.073,850.877,537.218,856.249L530.363,861.621" id="L-Attic-L_St-0" class="edge-thickness-normal edge-pattern-dotted flowchart-link LS-Attic LE-L_St" style="fill:none;stroke-width:2px;stroke-dasharray:3;" marker-end="url(#mermaid-1789986014362_flowchart-pointEnd)"></path><path d="M1094.906,575.703L1094.906,579.869C1094.906,584.036,1094.906,592.369,1094.906,602.453C1094.906,612.536,1094.906,624.369,1094.906,636.203C1094.906,648.036,1094.906,659.869,1094.906,669.953C1094.906,680.036,1094.906,688.369,1094.906,702.718C1094.906,717.067,1094.906,737.432,1094.906,759.546C1094.906,781.661,1094.906,805.526,1086.622,822.89C1078.338,840.255,1061.77,851.119,1053.485,856.552L1045.201,861.984" id="L-Attic-M_St-0" class="edge-thickness-normal edge-pattern-dotted flowchart-link LS-Attic LE-M_St" style="fill:none;stroke-width:2px;stroke-dasharray:3;" marker-end="url(#mermaid-1789986014362_flowchart-pointEnd)"></path><path d="M1212.445,528.031L1322.819,540.143C1433.193,552.255,1653.94,576.479,1764.314,594.507C1874.688,612.536,1874.688,624.369,1874.688,636.203C1874.688,648.036,1874.688,659.869,1874.688,669.953C1874.688,680.036,1874.688,688.369,1874.688,702.718C1874.688,717.067,1874.688,737.432,1874.688,759.546C1874.688,781.661,1874.688,805.526,1867.714,822.835C1860.741,840.145,1846.794,850.899,1839.821,856.276L1832.848,861.654" id="L-Attic-W_Gn-0" class="edge-thickness-normal edge-pattern-dotted flowchart-link LS-Attic LE-W_Gn" style="fill:none;stroke-width:2px;stroke-dasharray:3;" marker-end="url(#mermaid-1789986014362_flowchart-pointEnd)"></path></g><g class="edgeLabels"><g class="edgeLabel"><g class="label" transform="translate(-6, -10.5)"><foreignObject width="12" height="21"><div xmlns="http://www.w3.org/1999/xhtml" style="display: inline-block; white-space: nowrap;"><span class="edgeLabel"></span></div></foreignObject></g></g><g class="edgeLabel"><g class="label" transform="translate(-6, -10.5)"><foreignObject width="12" height="21"><div xmlns="http://www.w3.org/1999/xhtml" style="display: inline-block; white-space: nowrap;"><span class="edgeLabel"></span></div></foreignObject></g></g><g class="edgeLabel"><g class="label" transform="translate(-6, -10.5)"><foreignObject width="12" height="21"><div xmlns="http://www.w3.org/1999/xhtml" style="display: inline-block; white-space: nowrap;"><span class="edgeLabel"></span></div></foreignObject></g></g><g class="edgeLabel"><g class="label" transform="translate(-6, -10.5)"><foreignObject width="12" height="21"><div xmlns="http://www.w3.org/1999/xhtml" style="display: inline-block; white-space: nowrap;"><span class="edgeLabel"></span></div></foreignObject></g></g><g class="edgeLabel"><g class="label" transform="translate(-6, -10.5)"><foreignObject width="12" height="21"><div xmlns="http://www.w3.org/1999/xhtml" style="display: inline-block; white-space: nowrap;"><span class="edgeLabel"></span></div></foreignObject></g></g><g class="edgeLabel"><g class="label" transform="translate(-6, -10.5)"><foreignObject width="12" height="21"><div xmlns="http://www.w3.org/1999/xhtml" style="display: inline-block; white-space: nowrap;"><span class="edgeLabel"></span></div></foreignObject></g></g><g class="edgeLabel"><g class="label" transform="translate(-6, -10.5)"><foreignObject width="12" height="21"><div xmlns="http://www.w3.org/1999/xhtml" style="display: inline-block; white-space: nowrap;"><span class="edgeLabel"></span></div></foreignObject></g></g><g class="edgeLabel"><g class="label" transform="translate(-6, -10.5)"><foreignObject width="12" height="21"><div xmlns="http://www.w3.org/1999/xhtml" style="display: inline-block; white-space: nowrap;"><span class="edgeLabel"></span></div></foreignObject></g></g><g class="edgeLabel"><g class="label" transform="translate(-6, -10.5)"><foreignObject width="12" height="21"><div xmlns="http://www.w3.org/1999/xhtml" style="display: inline-block; white-space: nowrap;"><span class="edgeLabel"></span></div></foreignObject></g></g><g class="edgeLabel" transform="translate(356.578125, 515.1326026916504)"><g class="label" transform="translate(-98.015625, -10.5)"><foreignObject width="196.03125" height="21"><div xmlns="http://www.w3.org/1999/xhtml" style="display: inline-block; white-space: nowrap;"><span class="edgeLabel">gRPC: Hashes &amp; Drift</span></div></foreignObject></g></g><g class="edgeLabel" transform="translate(844.3515625, 515.1326026916504)"><g class="label" transform="translate(-98.015625, -10.5)"><foreignObject width="196.03125" height="21"><div xmlns="http://www.w3.org/1999/xhtml" style="display: inline-block; white-space: nowrap;"><span class="edgeLabel">gRPC: Hashes &amp; Drift</span></div></foreignObject></g></g><g class="edgeLabel" transform="translate(1656.8046875, 515.1326026916504)"><g class="label" transform="translate(-98.015625, -10.5)"><foreignObject width="196.03125" height="21"><div xmlns="http://www.w3.org/1999/xhtml" style="display: inline-block; white-space: nowrap;"><span class="edgeLabel">gRPC: Hashes &amp; Drift</span></div></foreignObject></g></g><g class="edgeLabel" transform="translate(1379.546875, 636.2027053833008)"><g class="label" transform="translate(-57.1796875, -10.5)"><foreignObject width="114.359375" height="21"><div xmlns="http://www.w3.org/1999/xhtml" style="display: inline-block; white-space: nowrap;"><span class="edgeLabel">Apple APNs</span></div></foreignObject></g></g><g class="edgeLabel" transform="translate(571.4921875, 757.7964553833008)"><g class="label" transform="translate(-63.0078125, -10.5)"><foreignObject width="126.015625" height="21"><div xmlns="http://www.w3.org/1999/xhtml" style="display: inline-block; white-space: nowrap;"><span class="edgeLabel">Signed NARs</span></div></foreignObject></g></g><g class="edgeLabel" transform="translate(1094.90625, 757.7964553833008)"><g class="label" transform="translate(-63.0078125, -10.5)"><foreignObject width="126.015625" height="21"><div xmlns="http://www.w3.org/1999/xhtml" style="display: inline-block; white-space: nowrap;"><span class="edgeLabel">Signed NARs</span></div></foreignObject></g></g><g class="edgeLabel" transform="translate(1874.6875, 757.7964553833008)"><g class="label" transform="translate(-63.0078125, -10.5)"><foreignObject width="126.015625" height="21"><div xmlns="http://www.w3.org/1999/xhtml" style="display: inline-block; white-space: nowrap;"><span class="edgeLabel">Signed NARs</span></div></foreignObject></g></g></g><g class="nodes"><g class="node default storage flowchart-label" id="flowchart-W_Gn-17" data-node="true" data-id="W_Gn" transform="translate(1781.84375, 900.9839553833008)"><rect class="basic label-container" style="" rx="0" ry="0" x="-104.0703125" y="-36.09375" width="208.140625" height="72.1875"></rect><g class="label" style="" transform="translate(-96.5703125, -28.59375)"><rect></rect><foreignObject width="193.140625" height="57.1875"><div xmlns="http://www.w3.org/1999/xhtml" style="display: inline-block; white-space: nowrap;"><span class="nodeLabel">generations/<br/>(Registry &amp; LGPO)</span></div></foreignObject></g></g><g class="node default agent flowchart-label" id="flowchart-W_Ag-16" data-node="true" data-id="W_Ag" transform="translate(1656.8046875, 757.7964553833008)"><rect class="basic label-container" style="" rx="0" ry="0" x="-119.875" y="-36.09375" width="239.75" height="72.1875"></rect><g class="label" style="" transform="translate(-112.375, -28.59375)"><rect></rect><foreignObject width="224.75" height="57.1875"><div xmlns="http://www.w3.org/1999/xhtml" style="display: inline-block; white-space: nowrap;"><span class="nodeLabel">shepherd-srv (Win32)<br/>Drift Detector</span></div></foreignObject></g></g><g class="node default storage flowchart-label" id="flowchart-M_St-13" data-node="true" data-id="M_St" transform="translate(985.7265625, 900.9839553833008)"><rect class="basic label-container" style="" rx="0" ry="0" x="-90.0078125" y="-36.09375" width="180.015625" height="72.1875"></rect><g class="label" style="" transform="translate(-82.5078125, -28.59375)"><rect></rect><foreignObject width="165.015625" height="57.1875"><div xmlns="http://www.w3.org/1999/xhtml" style="display: inline-block; white-space: nowrap;"><span class="nodeLabel">/nix/store<br/>(APFS Firmlink)</span></div></foreignObject></g></g><g class="node default agent flowchart-label" id="flowchart-M_Ag-12" data-node="true" data-id="M_Ag" transform="translate(844.3515625, 757.7964553833008)"><rect class="basic label-container" style="" rx="0" ry="0" x="-124.25" y="-36.09375" width="248.5" height="72.1875"></rect><g class="label" style="" transform="translate(-116.75, -28.59375)"><rect></rect><foreignObject width="233.5" height="57.1875"><div xmlns="http://www.w3.org/1999/xhtml" style="display: inline-block; white-space: nowrap;"><span class="nodeLabel">shepherd-srv (Darwin)<br/>Drift Detector</span></div></foreignObject></g></g><g class="node default mdm flowchart-label" id="flowchart-M_Sec-15" data-node="true" data-id="M_Sec" transform="translate(1379.546875, 900.9839553833008)"><rect class="basic label-container" style="" rx="0" ry="0" x="-52.7421875" y="-36.09375" width="105.484375" height="72.1875"></rect><g class="label" style="" transform="translate(-45.2421875, -28.59375)"><rect></rect><foreignObject width="90.484375" height="57.1875"><div xmlns="http://www.w3.org/1999/xhtml" style="display: inline-block; white-space: nowrap;"><span class="nodeLabel">FileVault<br/>&amp; TCC</span></div></foreignObject></g></g><g class="node default mdm flowchart-label" id="flowchart-M_MDM-14" data-node="true" data-id="M_MDM" transform="translate(1379.546875, 757.7964553833008)"><rect class="basic label-container" style="" rx="0" ry="0" x="-67.3828125" y="-36.09375" width="134.765625" height="72.1875"></rect><g class="label" style="" transform="translate(-59.8828125, -28.59375)"><rect></rect><foreignObject width="119.765625" height="57.1875"><div xmlns="http://www.w3.org/1999/xhtml" style="display: inline-block; white-space: nowrap;"><span class="nodeLabel">Apple MDM<br/>Client</span></div></foreignObject></g></g><g class="node default storage flowchart-label" id="flowchart-L_St-11" data-node="true" data-id="L_St" transform="translate(480.1328125, 900.9839553833008)"><rect class="basic label-container" style="" rx="0" ry="0" x="-69.2109375" y="-36.09375" width="138.421875" height="72.1875"></rect><g class="label" style="" transform="translate(-61.7109375, -28.59375)"><rect></rect><foreignObject width="123.421875" height="57.1875"><div xmlns="http://www.w3.org/1999/xhtml" style="display: inline-block; white-space: nowrap;"><span class="nodeLabel">/nix/store<br/>(tmpfs root)</span></div></foreignObject></g></g><g class="node default agent flowchart-label" id="flowchart-L_Ag-10" data-node="true" data-id="L_Ag" transform="translate(356.578125, 757.7964553833008)"><rect class="basic label-container" style="" rx="0" ry="0" x="-116.90625" y="-36.09375" width="233.8125" height="72.1875"></rect><g class="label" style="" transform="translate(-109.40625, -28.59375)"><rect></rect><foreignObject width="218.8125" height="57.1875"><div xmlns="http://www.w3.org/1999/xhtml" style="display: inline-block; white-space: nowrap;"><span class="nodeLabel">shepherd-srv (Linux)<br/>Drift Detector</span></div></foreignObject></g></g><g class="node default server flowchart-label" id="flowchart-Eval-1" data-node="true" data-id="Eval" transform="translate(969.62890625, 204.28125)"><rect class="basic label-container" style="" rx="0" ry="0" x="-102.25" y="-36.09375" width="204.5" height="72.1875"></rect><g class="label" style="" transform="translate(-94.75, -28.59375)"><rect></rect><foreignObject width="189.5" height="57.1875"><div xmlns="http://www.w3.org/1999/xhtml" style="display: inline-block; white-space: nowrap;"><span class="nodeLabel">Nix Evaluator<br/>(Pure Derivations)</span></div></foreignObject></g></g><g class="node default server flowchart-label" id="flowchart-Flake-0" data-node="true" data-id="Flake" transform="translate(969.62890625, 61.09375)"><rect class="basic label-container" style="" rx="0" ry="0" x="-96.140625" y="-36.09375" width="192.28125" height="72.1875"></rect><g class="label" style="" transform="translate(-88.640625, -28.59375)"><rect></rect><foreignObject width="177.28125" height="57.1875"><div xmlns="http://www.w3.org/1999/xhtml" style="display: inline-block; white-space: nowrap;"><span class="nodeLabel">Unified Nix Flake<br/>(Git Repo)</span></div></foreignObject></g></g><g class="node default server flowchart-label" id="flowchart-Core-3" data-node="true" data-id="Core" transform="translate(816.3203125, 347.46875)"><rect class="basic label-container" style="" rx="0" ry="0" x="-126.4765625" y="-36.09375" width="252.953125" height="72.1875"></rect><g class="label" style="" transform="translate(-118.9765625, -28.59375)"><rect></rect><foreignObject width="237.953125" height="57.1875"><div xmlns="http://www.w3.org/1999/xhtml" style="display: inline-block; white-space: nowrap;"><span class="nodeLabel">Shepherd Core Server<br/>(gRPC &amp; Tailcat DERP)</span></div></foreignObject></g></g><g class="node default storage flowchart-label" id="flowchart-DB-5" data-node="true" data-id="DB" transform="translate(129.28125, 515.1326026916504)"><path style="" d="M 0,15.033884791708191 a 94.28125,15.033884791708191 0,0,0 188.5625 0 a 94.28125,15.033884791708191 0,0,0 -188.5625 0 l 0,87.22138479170819 a 94.28125,15.033884791708191 0,0,0 188.5625 0 l 0,-87.22138479170819" transform="translate(-94.28125,-58.644577187562284)"></path><g class="label" style="" transform="translate(-86.78125, -28.59375)"><rect></rect><foreignObject width="173.5625" height="57.1875"><div xmlns="http://www.w3.org/1999/xhtml" style="display: inline-block; white-space: nowrap;"><span class="nodeLabel">PostgreSQL 16<br/>State &amp; Drift Log</span></div></foreignObject></g></g><g class="node default mdm flowchart-label" id="flowchart-NanoMDM-7" data-node="true" data-id="NanoMDM" transform="translate(1379.546875, 515.1326026916504)"><rect class="basic label-container" style="" rx="0" ry="0" x="-117.1015625" y="-36.09375" width="234.203125" height="72.1875"></rect><g class="label" style="" transform="translate(-109.6015625, -28.59375)"><rect></rect><foreignObject width="219.203125" height="57.1875"><div xmlns="http://www.w3.org/1999/xhtml" style="display: inline-block; white-space: nowrap;"><span class="nodeLabel">NanoMDM<br/>(Apple APNs Engine)</span></div></foreignObject></g></g><g class="node default storage flowchart-label" id="flowchart-Attic-9" data-node="true" data-id="Attic" transform="translate(1094.90625, 515.1326026916504)"><path style="" d="M 0,16.321327836840965 a 117.5390625,16.321327836840965 0,0,0 235.078125 0 a 117.5390625,16.321327836840965 0,0,0 -235.078125 0 l 0,88.50882783684096 a 117.5390625,16.321327836840965 0,0,0 235.078125 0 l 0,-88.50882783684096" transform="translate(-117.5390625,-60.57574175526145)"></path><g class="label" style="" transform="translate(-110.0390625, -28.59375)"><rect></rect><foreignObject width="220.078125" height="57.1875"><div xmlns="http://www.w3.org/1999/xhtml" style="display: inline-block; white-space: nowrap;"><span class="nodeLabel">Attic S3 Store<br/>Signed Binary Cache</span></div></foreignObject></g></g></g></g></g></svg>